<svg width="21" height="21" viewBox="0 0 21 21" fill="none" xmlns="http://www.w3.org/2000/svg">
<path fill-rule="evenodd" clip-rule="evenodd" d="M2.35966 3.0613C2.36166 3.0613 2.31166 3.1133 2.24866 3.1753C2.00666 3.4103 1.50566 3.8993 1.50061 4.9223C1.49266 6.3533 2.43366 9.0103 6.96466 13.5403C11.4747 18.0483 14.1277 19.0003 15.5617 19.0003H15.5827C16.6057 18.9953 17.0937 18.4933 17.3297 18.2523C17.4017 18.1783 17.4597 18.1243 17.5007 18.0903C18.4967 17.0883 19.0067 16.3423 19.0017 15.8643C18.9947 15.3763 18.3877 14.7993 17.5487 14.0013C17.2817 13.7473 16.9917 13.4713 16.6857 13.1653C15.8927 12.3743 15.4997 12.5093 14.6357 12.8133C13.4407 13.2323 11.8007 13.8023 9.25266 11.2533C6.70066 8.7033 7.27166 7.0653 7.68966 5.8703C7.99166 5.0063 8.12966 4.6123 7.33566 3.8183C7.02466 3.5083 6.74566 3.2143 6.48866 2.9443C5.69566 2.1103 5.12366 1.5073 4.63866 1.5003H4.63066C4.15166 1.5003 3.40766 2.0123 2.35466 3.0653C2.35766 3.0623 2.35866 3.0613 2.35966 3.0613ZM15.5627 20.5003C13.0707 20.5003 9.82166 18.5163 5.90466 14.6013C1.97266 10.6703 -0.0143441 7.4113 0.000571634 4.9143C0.00965593 3.2643 0.874656 2.4193 1.19966 2.1023C1.21666 2.0813 1.27466 2.0243 1.29466 2.0043C2.72866 0.569303 3.69566 -0.0106975 4.65766 0.000149137C5.77466 0.0153025 6.56966 0.851303 7.57566 1.9103C7.82466 2.1723 8.09466 2.4573 8.39566 2.7573C9.85566 4.2173 9.43966 5.4083 9.10566 6.3643C8.74166 7.4073 8.42666 8.3073 10.3127 10.1933C12.2007 12.0793 13.1007 11.7643 14.1397 11.3973C15.0967 11.0633 16.2847 10.6453 17.7467 12.1053C18.0427 12.4013 18.3237 12.6683 18.5827 12.9153C19.6467 13.9263 20.4867 14.7253 20.5008 15.8453C20.5127 16.8003 19.9327 17.7733 18.5007 19.2063L17.8667 18.7763L18.4027 19.3003C18.0857 19.6253 17.2417 20.4913 15.5907 20.5003H15.5627Z" fill="#616B7B"/>
</svg>
